<?xml version="1.0" standalone="no"?>
<!DOCTYPE svg PUBLIC "-//W3C//DTD SVG 20010904//EN"
 "http://www.w3.org/TR/2001/REC-SVG-20010904/DTD/svg10.dtd">
<svg version="1.0" xmlns="http://www.w3.org/2000/svg"
 width="180.000000pt" height="180.000000pt" viewBox="0 0 180.000000 180.000000"
 preserveAspectRatio="xMidYMid meet">
<metadata>
Created by potrace 1.14, written by Peter Selinger 2001-2017
</metadata>
<g transform="translate(0.000000,180.000000) scale(0.100000,-0.100000)"
fill="#000000" stroke="none">
<path d="M18 1728 c-16 -29 -15 -169 2 -239 21 -88 84 -193 169 -280 376 -386
496 -541 535 -690 34 -134 -21 -267 -154 -364 -28 -20 -48 -41 -45 -46 8 -11
70 -28 169 -44 113 -18 401 -15 440 5 40 21 43 37 7 45 -64 14 -103 110 -105
260 -2 122 21 221 69 291 63 92 98 118 368 277 152 89 255 180 294 259 37 72
35 280 -2 317 -15 16 -9 19 -93 -45 -39 -30 -104 -48 -244 -68 -21 -4 -55 -9
-75 -12 -172 -25 -338 -86 -404 -148 -41 -39 -50 -36 -94 34 -68 108 -159 166
-378 239 -190 64 -248 94 -326 169 -72 69 -110 81 -133 40z"/>
</g>
</svg>
